<svg id="Layer_1" data-name="Layer 1" xmlns="http://www.w3.org/2000/svg" viewBox="0 0 745.56 213.33"><defs><style>.cls-1{fill:#8596cc;}.cls-2{fill:#fbd2d2;}.cls-3,.cls-4{fill:#31489e;}.cls-4{font-size:102.7px;font-family:Goodfish-Regular, Goodfish;}.cls-5{letter-spacing:0.01em;}.cls-6{letter-spacing:0.01em;}</style></defs><title>logo-nome-juntos</title><path id="_Path_" data-name="&lt;Path&gt;" class="cls-1" d="M286.85,61.81s27.33-1.37,43,20.5L325.12,90S310.77,68.87,286.85,61.81Z" transform="translate(-10 -4)"/><path id="_Path_2" data-name="&lt;Path&gt;" class="cls-1" d="M330.81,147.45s-23.92-31.43,0-60.13,51-20.5,51-20.5S318.28,70.92,330.81,147.45Z" transform="translate(-10 -4)"/><path id="_Path_3" data-name="&lt;Path&gt;" class="cls-1" d="M339.47,96.2l-5.69,13.44s4.1,63.51-24.14,107.69C309.63,217.33,363.38,156.33,339.47,96.2Z" transform="translate(-10 -4)"/><g id="_Group_" data-name="&lt;Group&gt;"><path id="_Path_4" data-name="&lt;Path&gt;" class="cls-1" d="M259.73,134.8c1.11-.5,2.24-1,3.33-1.51,4.7-2.3,9.39-4.64,14.1-6.94,5.33-2.6,10.67-5.18,16-7.77l1.55-.78c.26-.13.54-.44.83-.19s.09.58,0,.87a23.84,23.84,0,0,1-14.13,17.3A38.47,38.47,0,0,1,265.72,139a68.94,68.94,0,0,1-11.05-.68c-.94-.15-1.2-.48-.83-1.37a51.64,51.64,0,0,1,10.56-16.42,28.56,28.56,0,0,1,11.5-7.5,25.68,25.68,0,0,1,16.89.35c.69.24.75.52.12.87-2.32,1.3-4.51,2.8-6.84,4.09-3.33,1.85-6.54,3.91-9.8,5.89q-6.81,4.13-13.62,8.28c-1,.64-2,1.34-3.06,2Z" transform="translate(-10 -4)"/><path id="_Path_5" data-name="&lt;Path&gt;" class="cls-1" d="M254.85,70.92c1.47.55,2.93,1.13,4.42,1.63,4,1.35,8,2.58,11.92,4,6.94,2.56,14,4.69,21,7.13.37.13,1,.13,1,.61s-.51.53-.83.72a25.74,25.74,0,0,1-11.29,3.75c-7.18.64-13.27-2-18.95-6a55.52,55.52,0,0,1-12.52-12.7c-.62-.84-.51-1.15.58-1.57a56.6,56.6,0,0,1,16.92-3.95,30.26,30.26,0,0,1,15.71,2.87A24.29,24.29,0,0,1,294,78.82c.17.33.49.71.26,1.07s-.72.12-1.06,0q-11.17-2.67-22.34-5.37L255,70.68Z" transform="translate(-10 -4)"/><path id="_Path_6" data-name="&lt;Path&gt;" class="cls-1" d="M410.72,125.22c-3.68-1.36-7.36-2.72-11-4.07l-25.42-9.22a6.58,6.58,0,0,1-.64-.26c-.3-.15-.77-.16-.82-.55s.41-.51.7-.67a26.74,26.74,0,0,1,13-3.65,26.26,26.26,0,0,1,13.5,3.9c6.58,3.86,11.66,9.26,15.93,15.5.59.87.3,1.18-.52,1.48a60.85,60.85,0,0,1-15,3.47,34.25,34.25,0,0,1-14.8-1.61c-6.69-2.38-11.13-7.1-14.08-13.4-.12-.26-.38-.59-.08-.84s.59,0,.88.06l24.34,6.47,13.29,3.52a6.94,6.94,0,0,0,.78.12Z" transform="translate(-10 -4)"/><path id="_Path_7" data-name="&lt;Path&gt;" class="cls-1" d="M300.42,21.11l2.34,4.73,12.59,25.62c.66,1.35,1.34,2.69,2,4,.11.23.35.49.16.75s-.5.14-.75.08c-7.2-1.65-12.84-5.46-16.47-12a37.22,37.22,0,0,1-4.15-15.39,62.63,62.63,0,0,1,.52-12.44c0-.27.13-.53.15-.79.06-.95.49-1,1.31-.7a58.92,58.92,0,0,1,9.21,4.82,40,40,0,0,1,9.4,7.76c6.45,7.63,8.27,16.15,5.12,25.68-.1.3-.09.77-.54.78s-.45-.38-.61-.64L303.45,25A14.07,14.07,0,0,0,300.42,21.11Z" transform="translate(-10 -4)"/><path id="_Path_8" data-name="&lt;Path&gt;" class="cls-1" d="M415.72,65.82A61.74,61.74,0,0,0,407,69.5c-4.53,2-9,4.2-13.5,6.31l-12.14,5.66c-.24.11-.49.3-.75.11s-.12-.5-.05-.75a25,25,0,0,1,8.59-13.64c5.13-4.08,11.14-5.71,17.57-6.25a53.19,53.19,0,0,1,14.7.91c1.22.24,1.28.38.77,1.54a50,50,0,0,1-12.72,17.68c-5.19,4.52-11.18,7.18-18.26,6.79a27.9,27.9,0,0,1-7.76-1.66c-.33-.12-.85-.19-.86-.64s.47-.46.76-.63l21.19-12.3c2.9-1.68,5.8-3.36,8.72-5C414.14,67.13,414.81,66.32,415.72,65.82Z" transform="translate(-10 -4)"/><path id="_Path_9" data-name="&lt;Path&gt;" class="cls-1" d="M368.41,16.78c-1.4,3.75-2.83,7.48-4.2,11.24q-4.31,11.77-8.58,23.56c-.34.94-.69,1.88-1.06,2.81-.09.23-.08.6-.45.59s-.34-.29-.45-.48C350.2,48.4,348.9,42,350.71,35c1.66-6.36,5.39-11.42,10-15.94A61.35,61.35,0,0,1,369,12.28c1.13-.77,1.31-.72,1.79.56a52.3,52.3,0,0,1,3.55,19.66A27.71,27.71,0,0,1,370,47.28a23.6,23.6,0,0,1-8.55,7.77c-.71.39-1.42.77-2.15,1.11-.26.13-.59.37-.86.15s-.11-.64,0-1q1.1-4.19,2.22-8.38c2-7.67,4.08-15.34,6.16-23A42.17,42.17,0,0,0,368.41,16.78Z" transform="translate(-10 -4)"/></g><circle id="_Path_10" data-name="&lt;Path&gt;" class="cls-2" cx="299.63" cy="92.2" r="10.55"/><circle id="_Path_11" data-name="&lt;Path&gt;" class="cls-2" cx="344.5" cy="91.06" r="10.02"/><circle id="_Path_12" data-name="&lt;Path&gt;" class="cls-2" cx="324.23" cy="55.76" r="10.48"/><path id="_Path_13" data-name="&lt;Path&gt;" class="cls-3" d="M398.8,34.52a109.28,109.28,0,0,0-9.08,8.25c-1,1-2.12,2-3.19,3-.22.21-.41.53-.76.41s-.27-.52-.28-.8A13.05,13.05,0,0,1,390,34.69a23.54,23.54,0,0,1,12.61-5.29c.78-.11,1.08.13,1,.92-.67,4.92-2,9.61-5.28,13.47a12.83,12.83,0,0,1-9.91,4.45c-.3,0-.69.05-.83-.26s.19-.63.4-.88c2.71-3.11,5.43-6.2,8.13-9.32C397,36.72,397.9,35.61,398.8,34.52Z" transform="translate(-10 -4)"/><path id="_Path_14" data-name="&lt;Path&gt;" class="cls-3" d="M273.81,38.71a21.46,21.46,0,0,0,3,3.55c2.57,2.71,5.19,5.38,7.78,8.08.21.21.57.42.48.74s-.6.31-.9.32a12.88,12.88,0,0,1-8.82-2.82c-3.81-3.07-5.49-7.32-6.66-11.87-.15-.6-.26-1.2-.38-1.81-.28-1.41,0-1.67,1.39-1.45a28,28,0,0,1,10.58,3.47c4.28,2.6,6.65,6.31,6.74,11.37,0,.37.16.88-.21,1.07s-.71-.32-1-.58q-5.64-4.87-11.26-9.76A4.12,4.12,0,0,0,273.81,38.71Z" transform="translate(-10 -4)"/><path id="_Path_15" data-name="&lt;Path&gt;" class="cls-3" d="M246.14,101.25c6,.32,12,.4,18,.45.89,0,2.22-.31,2.52.46s-1,1.33-1.64,1.88c-3.9,3.29-8.36,3.8-13.14,2.51a27.87,27.87,0,0,1-8.84-4.41c-.63-.45-.85-.89-.13-1.43,4.38-3.29,9-5.95,14.74-5.8a12.71,12.71,0,0,1,8.57,3.76c.24.23.62.47.49.85s-.58.32-.92.34c-3.76.25-7.53.48-11.29.74C251.74,100.79,248.94,101,246.14,101.25Z" transform="translate(-10 -4)"/><path id="_Path_16" data-name="&lt;Path&gt;" class="cls-3" d="M426,97.17H407.27c-.27,0-.54,0-.81,0s-.77.14-.93-.26.25-.61.47-.85c3.26-3.67,7.43-4.8,12.13-4.18a25.81,25.81,0,0,1,11.07,4.71c.88.6.78,1,0,1.59A24.39,24.39,0,0,1,418,103.71a13.08,13.08,0,0,1-11.76-3.38c-.27-.25-.72-.48-.54-.92s.61-.21.94-.24l15.19-1.3A36.15,36.15,0,0,0,426,97.5Z" transform="translate(-10 -4)"/><path id="_Path_17" data-name="&lt;Path&gt;" class="cls-3" d="M302.09,141.78c1.51-1.4,3.11-2.71,4.51-4.21,2.47-2.66,5.3-4.92,7.85-7.49.21-.21.45-.5.79-.37s.41.55.4.89a13.82,13.82,0,0,1-2.14,7.44c-2.41,3.77-6.1,5.77-10.18,7.17-1.42.49-2.89.82-4.35,1.17-.93.22-1.51-.09-1.38-1.18.7-5.93,2.29-11.45,7.49-15.12a12.64,12.64,0,0,1,7.3-2.21c.29,0,.67-.09.8.28s-.19.48-.36.68c-2.18,2.49-4.34,5-6.55,7.46A54.18,54.18,0,0,0,302.09,141.78Z" transform="translate(-10 -4)"/><path id="_Path_18" data-name="&lt;Path&gt;" class="cls-3" d="M371.35,139.16c-2.22-2-4-4.23-6.12-6.18-2.41-2.21-4.65-4.6-7-6.92-.46-.46-.23-.63.31-.68a12.49,12.49,0,0,1,11,4.23A23.66,23.66,0,0,1,375,141.52c.25,1.37.06,1.55-1.35,1.38a25.23,25.23,0,0,1-11-3.57,13.3,13.3,0,0,1-6.5-11c0-.35,0-.78.32-.92s.6.25.86.47l13.71,11.29S371.14,139.21,371.35,139.16Z" transform="translate(-10 -4)"/><path id="_Path_19" data-name="&lt;Path&gt;" class="cls-3" d="M335.34,8.78a9.26,9.26,0,0,0-.45,3.2c-.07,5-.16,9.93-.25,14.9,0,.33.12.77-.24,1s-.67-.25-.93-.49c-4.2-3.78-5-8.51-3.64-13.72a25.24,25.24,0,0,1,4.46-9.06c.53-.69.92-.77,1.5,0,3.09,4,5.41,8.24,5.73,13.36a12,12,0,0,1-4,9.72c-.16.16-.34.37-.59.27s-.26-.44-.28-.7q-.35-4.66-.69-9.32T335.34,8.78Z" transform="translate(-10 -4)"/><text class="cls-4" transform="translate(0 186.85)">Núcleo</text><text class="cls-4" transform="translate(410.65 186.85)">Con<tspan class="cls-5" x="151.69" y="0">s</tspan><tspan class="cls-6" x="182.81" y="0">t</tspan><tspan x="201.19" y="0">elar</tspan></text></svg>