<svg id="Layer_1" data-name="Layer 1" xmlns="http://www.w3.org/2000/svg" viewBox="0 0 373.62 252.05"><defs><style>.cls-1{fill:#8297e2;}.cls-2{fill:#ffd2d2;}.cls-3,.cls-4{fill:#2843a6;}.cls-4{font-size:61px;font-family:Goodfish-Regular, Goodfish;}.cls-5{letter-spacing:0.01em;}.cls-6{letter-spacing:0.01em;}</style></defs><title>logo-azul-rosa-claro</title><path id="_Path_" data-name="&lt;Path&gt;" class="cls-1" d="M544.91,290.75s32.29-1.61,50.86,24.22l-5.65,9.15S573.17,299.1,544.91,290.75Z" transform="translate(-433.62 -222.46)"/><path id="_Path_2" data-name="&lt;Path&gt;" class="cls-1" d="M596.85,391.94s-28.26-37.14,0-71,60.28-24.22,60.28-24.22S582,301.52,596.85,391.94Z" transform="translate(-433.62 -222.46)"/><path id="_Path_3" data-name="&lt;Path&gt;" class="cls-1" d="M607.08,331.39l-6.73,15.88s4.84,75-28.53,127.24C571.82,474.51,635.33,402.44,607.08,331.39Z" transform="translate(-433.62 -222.46)"/><g id="_Group_" data-name="&lt;Group&gt;"><path id="_Path_4" data-name="&lt;Path&gt;" class="cls-1" d="M512.87,377c1.31-.59,2.65-1.16,3.94-1.79,5.56-2.72,11.09-5.48,16.65-8.2,6.29-3.07,12.6-6.12,18.91-9.18.61-.3,1.21-.62,1.83-.92.31-.15.64-.52,1-.22s.11.69,0,1c-2.22,9.55-7.71,16.44-16.69,20.44A45.46,45.46,0,0,1,519.94,382a81.46,81.46,0,0,1-13.06-.81c-1.11-.18-1.42-.56-1-1.62a61,61,0,0,1,12.48-19.39A33.75,33.75,0,0,1,532,351.31a30.35,30.35,0,0,1,20,.42c.81.28.88.62.14,1-2.74,1.53-5.33,3.3-8.08,4.83-3.94,2.18-7.73,4.62-11.58,7q-8.05,4.88-16.09,9.78c-1.23.75-2.41,1.59-3.61,2.38Z" transform="translate(-433.62 -222.46)"/><path id="_Path_5" data-name="&lt;Path&gt;" class="cls-1" d="M507.11,301.52c1.74.65,3.46,1.33,5.22,1.93,4.69,1.6,9.44,3,14.09,4.76,8.2,3,16.56,5.55,24.81,8.42.44.15,1.15.16,1.19.72s-.6.62-1,.85a30.41,30.41,0,0,1-13.34,4.43c-8.48.76-15.68-2.36-22.39-7.08a65.6,65.6,0,0,1-14.79-15c-.73-1-.6-1.36.68-1.86a66.87,66.87,0,0,1,20-4.66,35.75,35.75,0,0,1,18.56,3.39,28.69,28.69,0,0,1,13.28,13.45c.2.4.58.84.3,1.26s-.85.14-1.25,0q-13.2-3.16-26.39-6.35-9.41-2.28-18.81-4.58Z" transform="translate(-433.62 -222.46)"/><path id="_Path_6" data-name="&lt;Path&gt;" class="cls-1" d="M691.26,365.68c-4.35-1.6-8.7-3.22-13.05-4.8l-30-10.89a7.77,7.77,0,0,1-.76-.3c-.36-.17-.91-.19-1-.65s.49-.6.82-.79a31.59,31.59,0,0,1,15.35-4.31,31,31,0,0,1,15.95,4.6c7.77,4.56,13.77,10.94,18.82,18.32.7,1,.36,1.4-.62,1.75A71.89,71.89,0,0,1,679,372.7a40.47,40.47,0,0,1-17.49-1.91c-7.9-2.81-13.15-8.39-16.64-15.83-.14-.31-.45-.69-.09-1s.7,0,1,.07l28.76,7.64,15.7,4.16a8.2,8.2,0,0,0,.92.14Z" transform="translate(-433.62 -222.46)"/><path id="_Path_7" data-name="&lt;Path&gt;" class="cls-1" d="M560.94,242.67l2.76,5.59,14.88,30.27c.78,1.59,1.59,3.18,2.37,4.77.13.27.41.58.19.88s-.59.16-.89.1c-8.51-2-15.18-6.45-19.46-14.19-3.13-5.65-4.4-11.8-4.9-18.18a74,74,0,0,1,.61-14.7c0-.32.15-.62.17-.94.07-1.12.57-1.22,1.54-.83a69.62,69.62,0,0,1,10.88,5.69,47.28,47.28,0,0,1,11.1,9.17c7.62,9,9.77,19.08,6,30.34-.12.36-.1.91-.64.92s-.54-.45-.72-.75l-20.35-33.5A16.62,16.62,0,0,0,560.94,242.67Z" transform="translate(-433.62 -222.46)"/><path id="_Path_8" data-name="&lt;Path&gt;" class="cls-1" d="M697.17,295.5c-3.65,1-6.93,2.82-10.32,4.34-5.35,2.41-10.63,5-16,7.45L656.56,314c-.29.13-.58.36-.89.14s-.14-.59-.06-.88a29.52,29.52,0,0,1,10.15-16.11c6.07-4.82,13.16-6.75,20.75-7.39a62.84,62.84,0,0,1,17.37,1.08c1.44.28,1.52.45.91,1.81a59.05,59.05,0,0,1-15,20.89c-6.13,5.34-13.21,8.49-21.57,8a33,33,0,0,1-9.17-2c-.39-.14-1-.22-1-.76s.56-.54.9-.74l25-14.53c3.42-2,6.85-4,10.3-5.91C695.3,297,696.09,296.09,697.17,295.5Z" transform="translate(-433.62 -222.46)"/><path id="_Path_9" data-name="&lt;Path&gt;" class="cls-1" d="M641.27,237.56c-1.66,4.43-3.34,8.84-5,13.28q-5.09,13.91-10.14,27.84c-.4,1.11-.82,2.22-1.25,3.32-.11.27-.1.71-.53.7s-.4-.34-.53-.57c-4.1-7.22-5.63-14.82-3.5-23,2-7.52,6.36-13.5,11.82-18.83a72.48,72.48,0,0,1,9.77-8.08c1.34-.91,1.55-.85,2.11.66a61.79,61.79,0,0,1,4.19,23.23,32.74,32.74,0,0,1-5.07,17.47,27.89,27.89,0,0,1-10.1,9.18c-.83.46-1.68.91-2.54,1.32-.31.15-.7.44-1,.18s-.13-.76,0-1.14q1.31-5,2.62-9.9c2.42-9.06,4.83-18.12,7.28-27.17A49.82,49.82,0,0,0,641.27,237.56Z" transform="translate(-433.62 -222.46)"/></g><circle id="_Path_10" data-name="&lt;Path&gt;" class="cls-2" cx="138.2" cy="108.93" r="12.47"/><circle id="_Path_11" data-name="&lt;Path&gt;" class="cls-2" cx="191.22" cy="107.59" r="11.84"/><circle id="_Path_12" data-name="&lt;Path&gt;" class="cls-2" cx="167.26" cy="65.88" r="12.38"/><path id="_Path_13" data-name="&lt;Path&gt;" class="cls-3" d="M677.18,258.51a129.12,129.12,0,0,0-10.73,9.75c-1.24,1.2-2.51,2.38-3.77,3.57-.26.24-.48.63-.9.49s-.32-.61-.33-.95a15.42,15.42,0,0,1,5.32-12.64c4.26-3.69,9.37-5.49,14.9-6.25.92-.13,1.28.15,1.15,1.09-.79,5.81-2.32,11.35-6.24,15.91a15.16,15.16,0,0,1-11.71,5.26c-.36,0-.81.06-1-.31s.22-.75.47-1c3.2-3.67,6.42-7.33,9.61-11C675.07,261.12,676.12,259.8,677.18,258.51Z" transform="translate(-433.62 -222.46)"/><path id="_Path_14" data-name="&lt;Path&gt;" class="cls-3" d="M529.5,263.46a25.36,25.36,0,0,0,3.53,4.19c3,3.2,6.13,6.36,9.19,9.54.24.25.67.49.56.87s-.71.37-1.06.38a15.22,15.22,0,0,1-10.42-3.33c-4.5-3.63-6.49-8.65-7.86-14-.18-.7-.3-1.42-.45-2.14-.33-1.66-.05-2,1.65-1.71a33.08,33.08,0,0,1,12.49,4.1c5.06,3.07,7.86,7.45,8,13.44,0,.44.19,1-.25,1.27s-.84-.38-1.19-.68q-6.66-5.76-13.31-11.54A4.86,4.86,0,0,0,529.5,263.46Z" transform="translate(-433.62 -222.46)"/><path id="_Path_15" data-name="&lt;Path&gt;" class="cls-3" d="M496.81,337.35c7.12.38,14.21.48,21.31.53,1.05,0,2.62-.36,3,.54.3.75-1.15,1.57-1.94,2.23-4.61,3.89-9.88,4.49-15.53,3a32.93,32.93,0,0,1-10.45-5.22c-.75-.53-1-1.06-.16-1.69,5.17-3.89,10.63-7,17.42-6.86a15,15,0,0,1,10.12,4.45c.29.27.74.56.58,1s-.68.38-1.08.41c-4.45.29-8.89.56-13.34.87C503.42,336.82,500.12,337.1,496.81,337.35Z" transform="translate(-433.62 -222.46)"/><path id="_Path_16" data-name="&lt;Path&gt;" class="cls-3" d="M709.3,332.54H687.18c-.32,0-.64,0-1,0s-.91.16-1.1-.3.3-.72.55-1c3.85-4.34,8.78-5.68,14.34-4.94,4.85.64,9.08,2.85,13.08,5.56,1,.71.92,1.12,0,1.88-3.91,3.18-8.16,5.66-13.18,6.55a15.46,15.46,0,0,1-13.89-4c-.31-.29-.85-.57-.64-1.08s.72-.25,1.11-.29l17.94-1.54a42.71,42.71,0,0,0,4.88-.44Z" transform="translate(-433.62 -222.46)"/><path id="_Path_17" data-name="&lt;Path&gt;" class="cls-3" d="M562.91,385.24c1.78-1.65,3.68-3.2,5.33-5,2.92-3.14,6.26-5.82,9.27-8.85.25-.25.53-.59.93-.43s.48.66.48,1.05a16.32,16.32,0,0,1-2.53,8.79c-2.84,4.45-7.21,6.82-12,8.48-1.67.57-3.41,1-5.14,1.39-1.1.26-1.79-.11-1.64-1.4.83-7,2.71-13.53,8.85-17.87a14.94,14.94,0,0,1,8.62-2.61c.35,0,.8-.11.95.33s-.22.57-.42.8c-2.57,2.94-5.12,5.9-7.74,8.81A64,64,0,0,0,562.91,385.24Z" transform="translate(-433.62 -222.46)"/><path id="_Path_18" data-name="&lt;Path&gt;" class="cls-3" d="M644.74,382.15c-2.62-2.33-4.72-5-7.23-7.3-2.85-2.61-5.49-5.44-8.22-8.18-.54-.55-.27-.75.36-.81a14.76,14.76,0,0,1,13,5,28,28,0,0,1,6.46,14.08c.3,1.62.07,1.83-1.59,1.63a29.81,29.81,0,0,1-13-4.22,15.71,15.71,0,0,1-7.68-12.95c0-.41,0-.92.38-1.08s.71.3,1,.55l16.19,13.34S644.5,382.2,644.74,382.15Z" transform="translate(-433.62 -222.46)"/><path id="_Path_19" data-name="&lt;Path&gt;" class="cls-3" d="M602.2,228.1a10.94,10.94,0,0,0-.53,3.78c-.08,5.87-.19,11.73-.3,17.6,0,.39.14.91-.28,1.13s-.79-.3-1.1-.58c-5-4.46-5.87-10.05-4.3-16.21a29.82,29.82,0,0,1,5.27-10.7c.62-.82,1.08-.91,1.77,0,3.65,4.67,6.4,9.74,6.77,15.79a14.16,14.16,0,0,1-4.69,11.48c-.19.18-.4.43-.7.32s-.31-.52-.33-.82q-.41-5.51-.81-11T602.2,228.1Z" transform="translate(-433.62 -222.46)"/><text class="cls-4" transform="translate(0 232.66)">Núcleo</text><text class="cls-4" transform="translate(174.7 232.66)">Con<tspan class="cls-5" x="90.1" y="0">s</tspan><tspan class="cls-6" x="108.58" y="0">t</tspan><tspan x="119.5" y="0">elar</tspan></text></svg>