<?xml version="1.0" standalone="no"?>
<!DOCTYPE svg PUBLIC "-//W3C//DTD SVG 20010904//EN"
 "http://www.w3.org/TR/2001/REC-SVG-20010904/DTD/svg10.dtd">
<svg version="1.0" xmlns="http://www.w3.org/2000/svg"
 width="377.000000pt" height="377.000000pt" viewBox="0 0 377.000000 377.000000"
 preserveAspectRatio="xMidYMid meet">
<metadata>
Created by potrace 1.11, written by Peter Selinger 2001-2013
</metadata>
<g transform="translate(0.000000,377.000000) scale(0.100000,-0.100000)"
fill="#000000" stroke="none">
<path d="M1778 3754 c-31 -16 -108 -115 -219 -279 -244 -361 -424 -747 -533
-1141 -85 -311 -114 -517 -111 -794 2 -107 6 -215 10 -240 4 -25 8 -54 10 -65
8 -80 59 -269 100 -375 73 -191 182 -374 317 -535 83 -99 309 -325 325 -325
25 0 72 23 79 38 4 9 9 71 10 137 2 136 13 758 19 1065 2 113 7 381 10 595 14
918 15 936 46 1060 6 22 13 52 16 68 9 48 20 38 22 -21 1 -31 4 -73 6 -92 1
-19 6 -84 10 -145 4 -60 8 -128 10 -150 2 -22 7 -78 10 -125 3 -47 7 -107 10
-135 2 -27 7 -90 10 -140 3 -49 8 -115 10 -145 3 -30 7 -95 10 -145 3 -49 7
-110 10 -135 4 -43 8 -99 20 -270 3 -41 7 -105 10 -142 3 -38 7 -98 10 -135 3
-38 7 -102 10 -143 3 -41 7 -100 10 -130 2 -30 7 -89 10 -130 3 -41 7 -102 10
-135 2 -33 7 -103 11 -155 3 -52 8 -108 9 -125 4 -52 22 -283 24 -317 1 -25
46 -51 74 -44 41 10 197 173 311 324 81 109 154 228 210 347 41 85 111 287
121 345 3 19 10 51 15 70 4 19 11 60 15 90 4 30 9 69 12 85 11 72 4 373 -12
485 -21 147 -30 196 -70 375 -20 92 -97 330 -137 425 -11 25 -27 63 -36 85 -9
22 -50 107 -91 190 -103 207 -211 386 -388 640 -34 49 -166 222 -190 250 -47
54 -94 67 -145 39z"/>
</g>
</svg>
